{
	"asset":{
		"generator":"Khronos glTF Blender I/O v3.5.30",
		"version":"2.0"
	},
	"scene":0,
	"scenes":[
		{
			"name":"Scene",
			"nodes":[
				0
			]
		}
	],
	"nodes":[
		{
			"mesh":0,
			"name":"Sphere"
		}
	],
	"animations":[
		{
			"channels":[
				{
					"sampler":0,
					"target":{
						"node":0,
						"path":"rotation"
					}
				},
				{
					"sampler":1,
					"target":{
						"node":0,
						"path":"translation"
					}
				}
			],
			"name":"SphereAction",
			"samplers":[
				{
					"input":4,
					"interpolation":"LINEAR",
					"output":5
				},
				{
					"input":6,
					"interpolation":"LINEAR",
					"output":7
				}
			]
		}
	],
	"materials":[
		{
			"doubleSided":true,
			"name":"Material.003",
			"pbrMetallicRoughness":{
				"metallicFactor":0.25090909004211426,
				"roughnessFactor":0.5
			}
		}
	],
	"meshes":[
		{
			"name":"Sphere",
			"primitives":[
				{
					"attributes":{
						"POSITION":0,
						"TEXCOORD_0":1,
						"NORMAL":2
					},
					"indices":3,
					"material":0
				}
			]
		}
	],
	"accessors":[
		{
			"bufferView":0,
			"componentType":5126,
			"count":1240,
			"max":[
				0.058536410331726074,
				0.39813122153282166,
				-2.311950445175171
			],
			"min":[
				-0.038536667823791504,
				0.301057904958725,
				-2.4090237617492676
			],
			"type":"VEC3"
		},
		{
			"bufferView":1,
			"componentType":5126,
			"count":1240,
			"type":"VEC2"
		},
		{
			"bufferView":2,
			"componentType":5126,
			"count":1240,
			"type":"VEC3"
		},
		{
			"bufferView":3,
			"componentType":5123,
			"count":1800,
			"type":"SCALAR"
		},
		{
			"bufferView":4,
			"componentType":5126,
			"count":481,
			"max":[
				8
			],
			"min":[
				0
			],
			"type":"SCALAR"
		},
		{
			"bufferView":5,
			"componentType":5126,
			"count":481,
			"type":"VEC4"
		},
		{
			"bufferView":6,
			"componentType":5126,
			"count":131,
			"max":[
				8
			],
			"min":[
				5.833333333333333
			],
			"type":"SCALAR"
		},
		{
			"bufferView":7,
			"componentType":5126,
			"count":131,
			"type":"VEC3"
		}
	],
	"bufferViews":[
		{
			"buffer":0,
			"byteLength":14880,
			"byteOffset":0,
			"target":34962
		},
		{
			"buffer":0,
			"byteLength":9920,
			"byteOffset":14880,
			"target":34962
		},
		{
			"buffer":0,
			"byteLength":14880,
			"byteOffset":24800,
			"target":34962
		},
		{
			"buffer":0,
			"byteLength":3600,
			"byteOffset":39680,
			"target":34963
		},
		{
			"buffer":0,
			"byteLength":1924,
			"byteOffset":43280
		},
		{
			"buffer":0,
			"byteLength":7696,
			"byteOffset":45204
		},
		{
			"buffer":0,
			"byteLength":524,
			"byteOffset":52900
		},
		{
			"buffer":0,
			"byteLength":1572,
			"byteOffset":53424
		}
	],
	"buffers":[
		{
			"byteLength":54996,
			"uri":"data:application/octet-stream;base64,"
		}
	]
}
